<?xml version="1.0" standalone="no"?><!DOCTYPE svg PUBLIC "-//W3C//DTD SVG 1.1//EN" "http://www.w3.org/Graphics/SVG/1.1/DTD/svg11.dtd"><svg t="1531884712765" class="icon" style="" viewBox="0 0 1024 1024" version="1.1" xmlns="http://www.w3.org/2000/svg" p-id="4844" xmlns:xlink="http://www.w3.org/1999/xlink" width="32" height="32"><defs><style type="text/css"></style></defs><path d="M336.034909 233.029818l606.021818 0c19.572364 0 35.397818-22.202182 35.397818-47.918545s-15.848727-45.730909-35.397818-45.730909l-606.021818 0c-19.572364 0-35.397818 20.014545-35.397818 45.730909S316.462545 233.029818 336.034909 233.029818zM942.056727 488.029091l-606.021818 0c-19.572364 0-35.397818 23.226182-35.397818 45.963636 0 22.760727 15.825455 47.778909 35.397818 47.778909l606.021818 0c19.572364 0 35.397818-25.018182 35.397818-47.778909C977.454545 511.255273 961.605818 488.029091 942.056727 488.029091zM942.056727 813.870545l-606.021818 0c-19.572364 0-35.397818 20.852364-35.397818 43.566545s15.825455 50.385455 35.397818 50.385455l606.021818 0c19.572364 0 35.397818-27.671273 35.397818-50.385455S961.605818 813.870545 942.056727 813.870545zM105.984 139.776c-25.995636 0-47.057455 21.085091-47.057455 47.057455 0 25.995636 21.085091 47.057455 47.057455 47.057455 25.995636 0 47.057455-21.061818 47.057455-47.057455C153.064727 160.861091 131.979636 139.776 105.984 139.776zM105.984 488.866909c-25.995636 0-47.057455 21.085091-47.057455 47.057455 0 25.995636 21.085091 47.057455 47.057455 47.057455 25.995636 0 47.057455-21.061818 47.057455-47.057455C153.064727 509.952 131.979636 488.866909 105.984 488.866909zM105.984 814.685091c-25.995636 0-47.057455 21.085091-47.057455 47.057455 0 25.995636 21.085091 47.057455 47.057455 47.057455 25.995636 0 47.057455-21.061818 47.057455-47.057455C153.064727 835.770182 131.979636 814.685091 105.984 814.685091z" p-id="4845" fill="#c5c9cd"></path></svg>