<?xml version="1.0" standalone="no"?><!DOCTYPE svg PUBLIC "-//W3C//DTD SVG 1.1//EN" "http://www.w3.org/Graphics/SVG/1.1/DTD/svg11.dtd"><svg t="1531884233985" class="icon" style="" viewBox="0 0 1024 1024" version="1.1" xmlns="http://www.w3.org/2000/svg" p-id="2373" xmlns:xlink="http://www.w3.org/1999/xlink" width="32" height="32"><defs><style type="text/css"></style></defs><path d="M277.67823 196.706057 277.168624 196.706057 277.423427 196.959837Z" p-id="2374" fill="#c5c9cd"></path><path d="M897.134591 147.20055 163.708526 147.20055l0 49.505507 113.460098 0 0.509606 0 358.38332 0c1.608637-0.24764 2.595105-1.063215 4.616134-1.02126 7.997138 0.159636 13.511735 0.402159 17.912975 1.02126l238.543931 0L897.134591 147.20055 897.134591 147.20055z" p-id="2375" fill="#c5c9cd"></path><path d="M837.911768 793.865599 456.088596 793.865599c-0.838088 2.263553-1.659803 4.526083-2.49789 6.789637-1.675152 4.538363-3.584642 8.988722-5.742794 14.373359-14.777565-5.847172-29.085432-11.509125-44.770669-17.712407 0.440022-1.178849 0.849344-2.27788 1.287319-3.450589l-128.404462 0 106.539478-106.066711-35.160801-35.008328-44.7369 44.538379L302.601876 291.529703l46.891983 46.683229 35.160801-35.005258-106.97643-106.501616-0.254803 0.25378-0.254803-0.25378L165.863608 307.513746l35.163871 35.005258 51.847855-51.617611 0 419.962817-54.002938-53.762461-35.163871 35.005258 102.218056 101.760638L157.905356 793.867646l0 49.505507 733.422995 0 0-43.193755c-15.31787 5.578042-29.40061 10.708899-44.964074 16.376992C843.49288 808.849872 840.746326 801.459554 837.911768 793.865599z" p-id="2376" fill="#c5c9cd"></path><path d="M891.328351 793.865599l-2.164293 0c0.704035 2.090615 1.25355 3.650133 2.164293 6.311753L891.328351 793.865599z" p-id="2377" fill="#c5c9cd"></path><path d="M636.06155 196.706057c-6.39464 0.985444-10.643408 3.743254-13.497409 11.43954-64.655556 174.378539-129.755226 348.59335-194.756659 522.843976-7.723915 20.712741-15.46932 41.504276-23.442922 62.876026-0.436952 1.172709-0.846274 2.272763-1.287319 3.450589 15.685237 6.203282 29.992081 11.865235 44.770669 17.712407 2.158153-5.384637 4.066619-9.834996 5.742794-14.373359 0.838088-2.263553 1.659803-4.526083 2.49789-6.789637 22.51376-60.863183 45.195342-121.6752 67.220984-182.714392 3.377934-9.358135 7.365758-13.146415 17.764596-13.077853 70.813812 0.456395 141.633764 0.422625 212.45167 0.01535 9.181103-0.051165 13.299911 2.946099 16.322757 11.357675 15.879666 44.168965 32.307823 88.145549 48.597835 132.166135 6.388501 17.265222 12.935614 34.760688 19.466354 52.252061 2.834558 7.592932 5.581112 14.984273 8.452509 22.688745 15.563464-5.668093 29.646204-10.79895 44.964074-16.376992-0.910743-2.661619-1.460258-4.221138-2.164293-6.311753-0.892323-2.65241-1.90028-5.711072-2.743484-8.007371-68.868507-187.452299-137.761574-374.895389-206.639291-562.347688-7.362688-20.039405-9.657964-25.181519-21.190625-26.804483-4.40124-0.6191-9.915837-0.861624-17.912975-1.02126C638.656655 195.642842 637.670188 196.458417 636.06155 196.706057zM747.994875 549.226856c-67.87283 0-133.554762 0-201.090924 0 33.695427-90.269933 66.913992-179.260733 101.392248-271.624351C682.19117 369.948727 714.864314 458.961016 747.994875 549.226856z" p-id="2378" fill="#c5c9cd"></path></svg>